<?xml version="1.0" encoding="UTF-8"?>
<svg xmlns="http://www.w3.org/2000/svg" xmlns:xlink="http://www.w3.org/1999/xlink" width="854" height="480" viewBox="0 0 854 480">
<defs>
<g>
<g id="glyph-0-0">
<path d="M 0.171875 0 L 0.171875 -0.1875 L 0.21875 -0.1875 C 0.320312 -0.1875 0.410156 -0.203125 0.484375 -0.234375 C 0.554688 -0.265625 0.59375 -0.347656 0.59375 -0.484375 L 0.59375 -2.6875 C 0.59375 -2.8125 0.554688 -2.890625 0.484375 -2.921875 C 0.410156 -2.960938 0.320312 -2.984375 0.21875 -2.984375 L 0.171875 -2.984375 L 0.171875 -3.171875 L 1.1875 -3.171875 L 2.09375 -0.625 L 3.015625 -3.171875 L 4 -3.171875 L 4 -2.984375 L 3.9375 -2.984375 C 3.832031 -2.984375 3.742188 -2.960938 3.671875 -2.921875 C 3.609375 -2.890625 3.578125 -2.800781 3.578125 -2.65625 L 3.578125 -0.5 C 3.578125 -0.363281 3.609375 -0.273438 3.671875 -0.234375 C 3.742188 -0.203125 3.832031 -0.1875 3.9375 -0.1875 L 4 -0.1875 L 4 0 L 2.8125 0 L 2.8125 -0.1875 L 2.828125 -0.1875 C 2.921875 -0.1875 2.992188 -0.203125 3.046875 -0.234375 C 3.109375 -0.265625 3.140625 -0.34375 3.140625 -0.46875 L 3.140625 -2.828125 L 2.125 0 L 1.890625 0 L 0.859375 -2.828125 L 0.859375 -0.5 C 0.859375 -0.363281 0.882812 -0.273438 0.9375 -0.234375 C 1 -0.203125 1.082031 -0.1875 1.1875 -0.1875 L 1.1875 0 Z "/>
</g>
<g id="glyph-0-1">
<path d="M 1.09375 0.046875 C 0.800781 0.046875 0.582031 -0.0078125 0.4375 -0.125 C 0.289062 -0.238281 0.21875 -0.390625 0.21875 -0.578125 C 0.21875 -0.671875 0.242188 -0.742188 0.296875 -0.796875 C 0.347656 -0.847656 0.425781 -0.875 0.53125 -0.875 C 0.539062 -0.757812 0.566406 -0.644531 0.609375 -0.53125 C 0.648438 -0.425781 0.710938 -0.335938 0.796875 -0.265625 C 0.878906 -0.203125 0.988281 -0.171875 1.125 -0.171875 C 1.320312 -0.171875 1.476562 -0.21875 1.59375 -0.3125 C 1.707031 -0.414062 1.765625 -0.554688 1.765625 -0.734375 C 1.765625 -0.835938 1.742188 -0.925781 1.703125 -1 C 1.660156 -1.082031 1.585938 -1.15625 1.484375 -1.21875 C 1.390625 -1.28125 1.253906 -1.347656 1.078125 -1.421875 C 0.804688 -1.535156 0.601562 -1.664062 0.46875 -1.8125 C 0.332031 -1.96875 0.265625 -2.164062 0.265625 -2.40625 C 0.265625 -2.570312 0.304688 -2.710938 0.390625 -2.828125 C 0.472656 -2.953125 0.585938 -3.046875 0.734375 -3.109375 C 0.878906 -3.179688 1.046875 -3.21875 1.234375 -3.21875 C 1.492188 -3.21875 1.695312 -3.164062 1.84375 -3.0625 C 1.988281 -2.957031 2.0625 -2.84375 2.0625 -2.71875 C 2.0625 -2.625 2.03125 -2.550781 1.96875 -2.5 C 1.90625 -2.445312 1.820312 -2.421875 1.71875 -2.421875 C 1.71875 -2.515625 1.703125 -2.601562 1.671875 -2.6875 C 1.640625 -2.78125 1.585938 -2.851562 1.515625 -2.90625 C 1.441406 -2.957031 1.34375 -2.984375 1.21875 -2.984375 C 1.039062 -2.984375 0.90625 -2.9375 0.8125 -2.84375 C 0.71875 -2.757812 0.671875 -2.640625 0.671875 -2.484375 C 0.671875 -2.367188 0.691406 -2.269531 0.734375 -2.1875 C 0.773438 -2.101562 0.847656 -2.03125 0.953125 -1.96875 C 1.054688 -1.90625 1.191406 -1.835938 1.359375 -1.765625 C 1.617188 -1.660156 1.820312 -1.535156 1.96875 -1.390625 C 2.113281 -1.253906 2.1875 -1.070312 2.1875 -0.84375 C 2.1875 -0.5625 2.085938 -0.34375 1.890625 -0.1875 C 1.691406 -0.03125 1.425781 0.046875 1.09375 0.046875 Z "/>
</g>
<g id="glyph-0-2">
<path d="M 0.171875 0 L 0.171875 -0.1875 L 0.21875 -0.1875 C 0.320312 -0.1875 0.410156 -0.203125 0.484375 -0.234375 C 0.554688 -0.265625 0.59375 -0.347656 0.59375 -0.484375 L 0.59375 -2.65625 C 0.59375 -2.800781 0.554688 -2.890625 0.484375 -2.921875 C 0.410156 -2.960938 0.320312 -2.984375 0.21875 -2.984375 L 0.171875 -2.984375 L 0.171875 -3.171875 L 2.40625 -3.171875 L 2.421875 -2.390625 L 2.203125 -2.390625 L 2.171875 -2.578125 C 2.160156 -2.679688 2.125 -2.769531 2.0625 -2.84375 C 2.007812 -2.914062 1.914062 -2.953125 1.78125 -2.953125 L 1.03125 -2.953125 L 1.03125 -1.765625 L 2.109375 -1.765625 L 2.109375 -1.546875 L 1.03125 -1.546875 L 1.03125 -0.21875 L 1.890625 -0.21875 C 2.035156 -0.21875 2.140625 -0.253906 2.203125 -0.328125 C 2.265625 -0.398438 2.300781 -0.484375 2.3125 -0.578125 L 2.34375 -0.78125 L 2.578125 -0.78125 L 2.546875 0 Z "/>
</g>
</g>
</defs>
<g fill="rgb(47.843137%, 47.843137%, 54.901961%)" fill-opacity="1">
<use xlink:href="#glyph-0-0" x="30" y="24.750977"/>
<use xlink:href="#glyph-0-1" x="34" y="24.750977"/>
<use xlink:href="#glyph-0-2" x="36" y="24.750977"/>
</g>
</svg>
