<?xml version="1.0" encoding="UTF-8"?>
<svg xmlns="http://www.w3.org/2000/svg" xmlns:xlink="http://www.w3.org/1999/xlink" width="854" height="480" viewBox="0 0 854 480">
<defs>
<g>
<g id="glyph-0-0">
<path d="M 0.28125 0 L 0.28125 -0.53125 L 0.6875 -0.53125 C 0.832031 -0.53125 0.953125 -0.566406 1.046875 -0.640625 C 1.148438 -0.710938 1.203125 -0.894531 1.203125 -1.1875 L 1.203125 -5.96875 C 1.203125 -6.238281 1.148438 -6.410156 1.046875 -6.484375 C 0.953125 -6.566406 0.832031 -6.609375 0.6875 -6.609375 L 0.28125 -6.609375 L 0.28125 -7.140625 L 3.203125 -7.140625 C 4.148438 -7.140625 4.863281 -6.992188 5.34375 -6.703125 C 5.820312 -6.410156 6.0625 -5.945312 6.0625 -5.3125 C 6.0625 -4.875 5.941406 -4.539062 5.703125 -4.3125 C 5.472656 -4.09375 5.171875 -3.921875 4.796875 -3.796875 L 4.796875 -3.75 C 5.253906 -3.632812 5.628906 -3.425781 5.921875 -3.125 C 6.210938 -2.832031 6.359375 -2.441406 6.359375 -1.953125 C 6.359375 -0.648438 5.40625 0 3.5 0 Z M 3.171875 -4.046875 C 3.640625 -4.046875 3.957031 -4.144531 4.125 -4.34375 C 4.289062 -4.539062 4.375 -4.863281 4.375 -5.3125 C 4.375 -5.769531 4.28125 -6.085938 4.09375 -6.265625 C 3.914062 -6.441406 3.601562 -6.53125 3.15625 -6.53125 L 2.796875 -6.53125 L 2.796875 -4.046875 Z M 3.453125 -0.609375 C 3.898438 -0.609375 4.21875 -0.710938 4.40625 -0.921875 C 4.59375 -1.128906 4.6875 -1.484375 4.6875 -1.984375 C 4.6875 -2.484375 4.597656 -2.847656 4.421875 -3.078125 C 4.242188 -3.316406 3.925781 -3.4375 3.46875 -3.4375 L 2.796875 -3.4375 L 2.796875 -0.609375 Z "/>
</g>
<g id="glyph-0-1">
<path d="M 2.015625 0.09375 C 1.578125 0.09375 1.207031 -0.0351562 0.90625 -0.296875 C 0.601562 -0.566406 0.453125 -0.976562 0.453125 -1.53125 C 0.453125 -2.070312 0.632812 -2.472656 1 -2.734375 C 1.375 -2.992188 1.9375 -3.132812 2.6875 -3.15625 L 3.515625 -3.1875 L 3.515625 -3.734375 C 3.515625 -4.066406 3.476562 -4.335938 3.40625 -4.546875 C 3.332031 -4.765625 3.160156 -4.875 2.890625 -4.875 C 2.640625 -4.875 2.460938 -4.769531 2.359375 -4.5625 C 2.265625 -4.363281 2.21875 -4.109375 2.21875 -3.796875 C 1.769531 -3.796875 1.429688 -3.84375 1.203125 -3.9375 C 0.984375 -4.039062 0.875 -4.21875 0.875 -4.46875 C 0.875 -4.71875 0.96875 -4.914062 1.15625 -5.0625 C 1.34375 -5.207031 1.59375 -5.3125 1.90625 -5.375 C 2.21875 -5.445312 2.5625 -5.484375 2.9375 -5.484375 C 3.632812 -5.484375 4.15625 -5.359375 4.5 -5.109375 C 4.851562 -4.859375 5.03125 -4.421875 5.03125 -3.796875 L 5.03125 -1.234375 C 5.03125 -0.960938 5.070312 -0.773438 5.15625 -0.671875 C 5.25 -0.578125 5.40625 -0.53125 5.625 -0.53125 L 5.671875 -0.53125 L 5.671875 0 L 3.8125 0 L 3.59375 -0.6875 L 3.515625 -0.6875 C 3.367188 -0.507812 3.226562 -0.359375 3.09375 -0.234375 C 2.96875 -0.117188 2.820312 -0.0351562 2.65625 0.015625 C 2.488281 0.0664062 2.273438 0.09375 2.015625 0.09375 Z M 2.5625 -0.625 C 2.851562 -0.625 3.082031 -0.738281 3.25 -0.96875 C 3.425781 -1.207031 3.515625 -1.519531 3.515625 -1.90625 L 3.515625 -2.65625 L 3.0625 -2.625 C 2.65625 -2.601562 2.375 -2.5 2.21875 -2.3125 C 2.070312 -2.125 2 -1.847656 2 -1.484375 C 2 -0.910156 2.1875 -0.625 2.5625 -0.625 Z "/>
</g>
<g id="glyph-0-2">
</g>
<g id="glyph-0-3">
<path d="M 2.953125 0.09375 C 2.460938 0.09375 2.03125 0.00390625 1.65625 -0.171875 C 1.28125 -0.347656 0.988281 -0.632812 0.78125 -1.03125 C 0.570312 -1.4375 0.46875 -1.976562 0.46875 -2.65625 C 0.46875 -3.375 0.578125 -3.9375 0.796875 -4.34375 C 1.015625 -4.757812 1.304688 -5.050781 1.671875 -5.21875 C 2.046875 -5.394531 2.460938 -5.484375 2.921875 -5.484375 C 3.566406 -5.484375 4.054688 -5.378906 4.390625 -5.171875 C 4.734375 -4.972656 4.90625 -4.726562 4.90625 -4.4375 C 4.90625 -4.300781 4.867188 -4.164062 4.796875 -4.03125 C 4.722656 -3.90625 4.59375 -3.800781 4.40625 -3.71875 C 4.21875 -3.632812 3.953125 -3.59375 3.609375 -3.59375 C 3.609375 -3.820312 3.585938 -4.03125 3.546875 -4.21875 C 3.503906 -4.414062 3.4375 -4.570312 3.34375 -4.6875 C 3.25 -4.8125 3.117188 -4.875 2.953125 -4.875 C 2.765625 -4.875 2.597656 -4.804688 2.453125 -4.671875 C 2.304688 -4.546875 2.195312 -4.320312 2.125 -4 C 2.050781 -3.6875 2.015625 -3.242188 2.015625 -2.671875 C 2.015625 -1.992188 2.101562 -1.488281 2.28125 -1.15625 C 2.46875 -0.820312 2.773438 -0.65625 3.203125 -0.65625 C 3.546875 -0.65625 3.84375 -0.734375 4.09375 -0.890625 C 4.351562 -1.046875 4.539062 -1.234375 4.65625 -1.453125 C 4.726562 -1.410156 4.785156 -1.347656 4.828125 -1.265625 C 4.867188 -1.179688 4.890625 -1.09375 4.890625 -1 C 4.890625 -0.832031 4.820312 -0.660156 4.6875 -0.484375 C 4.550781 -0.316406 4.335938 -0.175781 4.046875 -0.0625 C 3.765625 0.0390625 3.398438 0.09375 2.953125 0.09375 Z "/>
</g>
<g id="glyph-0-4">
<path d="M 0.203125 0 L 0.203125 -0.53125 L 0.21875 -0.53125 C 0.445312 -0.53125 0.632812 -0.566406 0.78125 -0.640625 C 0.9375 -0.722656 1.015625 -0.914062 1.015625 -1.21875 L 1 -6.453125 C 1 -6.640625 0.957031 -6.773438 0.875 -6.859375 C 0.800781 -6.941406 0.707031 -6.992188 0.59375 -7.015625 C 0.488281 -7.046875 0.390625 -7.0625 0.296875 -7.0625 L 0.171875 -7.0625 L 0.171875 -7.59375 L 2.515625 -7.59375 L 2.515625 -5.953125 C 2.515625 -5.773438 2.507812 -5.585938 2.5 -5.390625 C 2.488281 -5.191406 2.472656 -5.023438 2.453125 -4.890625 C 2.441406 -4.753906 2.4375 -4.6875 2.4375 -4.6875 L 2.53125 -4.6875 C 2.664062 -4.9375 2.8125 -5.117188 2.96875 -5.234375 C 3.125 -5.347656 3.289062 -5.414062 3.46875 -5.4375 C 3.65625 -5.46875 3.851562 -5.484375 4.0625 -5.484375 C 4.570312 -5.484375 4.972656 -5.328125 5.265625 -5.015625 C 5.554688 -4.710938 5.703125 -4.226562 5.703125 -3.5625 L 5.703125 -1.234375 C 5.703125 -0.929688 5.757812 -0.738281 5.875 -0.65625 C 5.988281 -0.570312 6.15625 -0.53125 6.375 -0.53125 L 6.40625 -0.53125 L 6.40625 0 L 4.1875 0 L 4.1875 -3.296875 C 4.1875 -3.722656 4.125 -4.050781 4 -4.28125 C 3.882812 -4.519531 3.679688 -4.640625 3.390625 -4.640625 C 3.171875 -4.640625 3 -4.566406 2.875 -4.421875 C 2.75 -4.273438 2.65625 -4.082031 2.59375 -3.84375 C 2.539062 -3.613281 2.515625 -3.363281 2.515625 -3.09375 L 2.53125 -1.1875 C 2.53125 -0.90625 2.59375 -0.722656 2.71875 -0.640625 C 2.84375 -0.566406 3.015625 -0.53125 3.234375 -0.53125 L 3.265625 -0.53125 L 3.265625 0 Z "/>
</g>
<g id="glyph-0-5">
<path d="M 4.15625 -7.140625 C 4.25 -7.273438 4.347656 -7.429688 4.453125 -7.609375 C 4.566406 -7.796875 4.65625 -7.96875 4.71875 -8.125 L 5.65625 -8.125 L 5.65625 -7.984375 C 5.601562 -7.898438 5.515625 -7.796875 5.390625 -7.671875 C 5.265625 -7.554688 5.125 -7.4375 4.96875 -7.3125 C 4.8125 -7.1875 4.671875 -7.085938 4.546875 -7.015625 L 4.15625 -7.015625 Z M 1.234375 -6.1875 C 1.441406 -6.382812 1.640625 -6.585938 1.828125 -6.796875 C 2.023438 -7.015625 2.195312 -7.234375 2.34375 -7.453125 L 3.6875 -7.453125 C 3.832031 -7.234375 4 -7.015625 4.1875 -6.796875 C 4.382812 -6.585938 4.585938 -6.382812 4.796875 -6.1875 L 4.796875 -6.0625 L 4.09375 -6.0625 C 4 -6.125 3.882812 -6.207031 3.75 -6.3125 C 3.625 -6.414062 3.492188 -6.519531 3.359375 -6.625 C 3.222656 -6.738281 3.109375 -6.84375 3.015625 -6.9375 C 2.867188 -6.800781 2.6875 -6.644531 2.46875 -6.46875 C 2.25 -6.289062 2.070312 -6.15625 1.9375 -6.0625 L 1.234375 -6.0625 Z M 3.0625 0.09375 C 2.21875 0.09375 1.570312 -0.144531 1.125 -0.625 C 0.6875 -1.101562 0.46875 -1.78125 0.46875 -2.65625 C 0.46875 -3.59375 0.679688 -4.296875 1.109375 -4.765625 C 1.546875 -5.242188 2.160156 -5.484375 2.953125 -5.484375 C 3.679688 -5.484375 4.253906 -5.28125 4.671875 -4.875 C 5.085938 -4.46875 5.296875 -3.867188 5.296875 -3.078125 L 5.296875 -2.5625 L 2.015625 -2.5625 C 2.035156 -1.894531 2.160156 -1.410156 2.390625 -1.109375 C 2.617188 -0.804688 2.9375 -0.65625 3.34375 -0.65625 C 3.695312 -0.65625 3.992188 -0.734375 4.234375 -0.890625 C 4.472656 -1.046875 4.648438 -1.234375 4.765625 -1.453125 C 4.941406 -1.359375 5.03125 -1.195312 5.03125 -0.96875 C 5.03125 -0.6875 4.867188 -0.4375 4.546875 -0.21875 C 4.222656 -0.0078125 3.726562 0.09375 3.0625 0.09375 Z M 3.765625 -3.203125 C 3.765625 -3.722656 3.703125 -4.125 3.578125 -4.40625 C 3.460938 -4.695312 3.257812 -4.84375 2.96875 -4.84375 C 2.6875 -4.84375 2.460938 -4.703125 2.296875 -4.421875 C 2.128906 -4.148438 2.039062 -3.742188 2.03125 -3.203125 Z "/>
</g>
<g id="glyph-0-6">
<path d="M 2.5 0.09375 C 1.84375 0.09375 1.335938 -0.113281 0.984375 -0.53125 C 0.628906 -0.945312 0.453125 -1.609375 0.453125 -2.515625 C 0.453125 -3.429688 0.628906 -4.101562 0.984375 -4.53125 C 1.335938 -4.96875 1.835938 -5.1875 2.484375 -5.1875 C 2.859375 -5.1875 3.164062 -5.109375 3.40625 -4.953125 C 3.644531 -4.804688 3.832031 -4.613281 3.96875 -4.375 L 4.046875 -4.375 C 4.046875 -4.375 4.039062 -4.425781 4.03125 -4.53125 C 4.019531 -4.644531 4.007812 -4.773438 4 -4.921875 C 3.988281 -5.078125 3.976562 -5.222656 3.96875 -5.359375 C 3.957031 -5.503906 3.953125 -5.613281 3.953125 -5.6875 L 3.953125 -5.78125 L 2.40625 -5.78125 L 2.40625 -6.3125 L 3.953125 -6.3125 L 3.953125 -6.453125 C 3.953125 -6.734375 3.875 -6.90625 3.71875 -6.96875 C 3.5625 -7.03125 3.375 -7.0625 3.15625 -7.0625 L 3.0625 -7.0625 L 3.0625 -7.59375 L 5.484375 -7.59375 L 5.484375 -6.3125 L 6.34375 -6.3125 L 6.34375 -5.78125 L 5.484375 -5.78125 L 5.484375 -1.234375 C 5.484375 -1.035156 5.519531 -0.882812 5.59375 -0.78125 C 5.664062 -0.675781 5.765625 -0.609375 5.890625 -0.578125 C 6.023438 -0.546875 6.164062 -0.53125 6.3125 -0.53125 L 6.34375 -0.53125 L 6.34375 0 L 4.40625 0 L 4.125 -0.78125 L 4.046875 -0.78125 C 3.890625 -0.507812 3.691406 -0.296875 3.453125 -0.140625 C 3.210938 0.015625 2.894531 0.09375 2.5 0.09375 Z M 2.9375 -0.65625 C 3.320312 -0.65625 3.585938 -0.804688 3.734375 -1.109375 C 3.878906 -1.421875 3.953125 -1.898438 3.953125 -2.546875 C 3.953125 -3.148438 3.878906 -3.613281 3.734375 -3.9375 C 3.585938 -4.269531 3.320312 -4.4375 2.9375 -4.4375 C 2.601562 -4.4375 2.363281 -4.269531 2.21875 -3.9375 C 2.070312 -3.613281 2 -3.144531 2 -2.53125 C 2 -1.90625 2.070312 -1.4375 2.21875 -1.125 C 2.363281 -0.8125 2.601562 -0.65625 2.9375 -0.65625 Z "/>
</g>
<g id="glyph-0-7">
<path d="M 3.046875 0.09375 C 2.242188 0.09375 1.613281 -0.132812 1.15625 -0.59375 C 0.695312 -1.0625 0.46875 -1.765625 0.46875 -2.703125 C 0.46875 -3.640625 0.6875 -4.335938 1.125 -4.796875 C 1.570312 -5.253906 2.222656 -5.484375 3.078125 -5.484375 C 3.878906 -5.484375 4.507812 -5.253906 4.96875 -4.796875 C 5.425781 -4.335938 5.65625 -3.640625 5.65625 -2.703125 C 5.65625 -1.765625 5.429688 -1.0625 4.984375 -0.59375 C 4.546875 -0.132812 3.898438 0.09375 3.046875 0.09375 Z M 3.0625 -0.53125 C 3.457031 -0.53125 3.726562 -0.710938 3.875 -1.078125 C 4.03125 -1.453125 4.109375 -1.992188 4.109375 -2.703125 C 4.109375 -3.410156 4.03125 -3.941406 3.875 -4.296875 C 3.71875 -4.660156 3.445312 -4.84375 3.0625 -4.84375 C 2.675781 -4.84375 2.40625 -4.660156 2.25 -4.296875 C 2.09375 -3.941406 2.015625 -3.410156 2.015625 -2.703125 C 2.015625 -1.992188 2.09375 -1.453125 2.25 -1.078125 C 2.40625 -0.710938 2.675781 -0.53125 3.0625 -0.53125 Z M 1.28125 -6.1875 C 1.382812 -6.3125 1.503906 -6.460938 1.640625 -6.640625 C 1.785156 -6.816406 1.925781 -6.992188 2.0625 -7.171875 C 2.207031 -7.347656 2.3125 -7.507812 2.375 -7.65625 L 3.71875 -7.65625 C 3.789062 -7.507812 3.894531 -7.347656 4.03125 -7.171875 C 4.164062 -6.992188 4.304688 -6.816406 4.453125 -6.640625 C 4.597656 -6.460938 4.722656 -6.3125 4.828125 -6.1875 L 4.828125 -6.0625 L 4.140625 -6.0625 C 4.046875 -6.132812 3.929688 -6.222656 3.796875 -6.328125 C 3.660156 -6.429688 3.523438 -6.539062 3.390625 -6.65625 C 3.253906 -6.769531 3.140625 -6.867188 3.046875 -6.953125 C 2.898438 -6.828125 2.71875 -6.675781 2.5 -6.5 C 2.28125 -6.320312 2.101562 -6.175781 1.96875 -6.0625 L 1.28125 -6.0625 Z M 3.0625 2.03125 C 2.820312 2.03125 2.617188 1.972656 2.453125 1.859375 C 2.285156 1.742188 2.203125 1.5625 2.203125 1.3125 C 2.203125 1.0625 2.285156 0.878906 2.453125 0.765625 C 2.617188 0.648438 2.820312 0.59375 3.0625 0.59375 C 3.289062 0.59375 3.488281 0.648438 3.65625 0.765625 C 3.832031 0.878906 3.921875 1.0625 3.921875 1.3125 C 3.921875 1.5625 3.832031 1.742188 3.65625 1.859375 C 3.488281 1.972656 3.289062 2.03125 3.0625 2.03125 Z "/>
</g>
<g id="glyph-0-8">
<path d="M 2.3125 0.09375 C 1.582031 0.09375 1.0625 -0.015625 0.75 -0.234375 C 0.445312 -0.453125 0.296875 -0.726562 0.296875 -1.0625 C 0.296875 -1.289062 0.347656 -1.457031 0.453125 -1.5625 C 0.566406 -1.664062 0.695312 -1.734375 0.84375 -1.765625 C 0.988281 -1.804688 1.117188 -1.828125 1.234375 -1.828125 C 1.234375 -1.410156 1.328125 -1.082031 1.515625 -0.84375 C 1.710938 -0.601562 1.976562 -0.484375 2.3125 -0.484375 C 2.65625 -0.484375 2.90625 -0.550781 3.0625 -0.6875 C 3.21875 -0.820312 3.296875 -0.984375 3.296875 -1.171875 C 3.296875 -1.390625 3.207031 -1.566406 3.03125 -1.703125 C 2.863281 -1.847656 2.539062 -2.003906 2.0625 -2.171875 C 1.53125 -2.359375 1.117188 -2.578125 0.828125 -2.828125 C 0.546875 -3.085938 0.40625 -3.441406 0.40625 -3.890625 C 0.40625 -4.421875 0.597656 -4.816406 0.984375 -5.078125 C 1.378906 -5.347656 1.898438 -5.484375 2.546875 -5.484375 C 2.972656 -5.484375 3.3125 -5.4375 3.5625 -5.34375 C 3.820312 -5.25 4.007812 -5.128906 4.125 -4.984375 C 4.238281 -4.847656 4.296875 -4.703125 4.296875 -4.546875 C 4.296875 -4.316406 4.21875 -4.144531 4.0625 -4.03125 C 3.90625 -3.914062 3.644531 -3.859375 3.28125 -3.859375 C 3.28125 -4.191406 3.207031 -4.445312 3.0625 -4.625 C 2.914062 -4.8125 2.695312 -4.90625 2.40625 -4.90625 C 2.1875 -4.90625 1.992188 -4.851562 1.828125 -4.75 C 1.671875 -4.644531 1.59375 -4.492188 1.59375 -4.296875 C 1.59375 -4.148438 1.628906 -4.023438 1.703125 -3.921875 C 1.773438 -3.816406 1.910156 -3.710938 2.109375 -3.609375 C 2.316406 -3.503906 2.597656 -3.390625 2.953125 -3.265625 C 3.398438 -3.117188 3.765625 -2.921875 4.046875 -2.671875 C 4.335938 -2.421875 4.484375 -2.082031 4.484375 -1.65625 C 4.484375 -1.101562 4.289062 -0.671875 3.90625 -0.359375 C 3.53125 -0.0546875 3 0.09375 2.3125 0.09375 Z "/>
</g>
<g id="glyph-0-9">
<path d="M 2.4375 0.09375 C 1.988281 0.09375 1.628906 -0.0195312 1.359375 -0.25 C 1.085938 -0.476562 0.953125 -0.890625 0.953125 -1.484375 L 0.953125 -4.6875 L 0.203125 -4.6875 L 0.203125 -5.1875 C 0.421875 -5.1875 0.613281 -5.226562 0.78125 -5.3125 C 0.957031 -5.40625 1.09375 -5.503906 1.1875 -5.609375 C 1.394531 -5.828125 1.550781 -6.15625 1.65625 -6.59375 L 2.484375 -6.59375 L 2.484375 -5.359375 L 3.765625 -5.359375 L 3.765625 -4.6875 L 2.484375 -4.6875 L 2.484375 -1.578125 C 2.484375 -1.273438 2.535156 -1.050781 2.640625 -0.90625 C 2.742188 -0.769531 2.910156 -0.703125 3.140625 -0.703125 C 3.273438 -0.703125 3.398438 -0.710938 3.515625 -0.734375 C 3.628906 -0.753906 3.738281 -0.773438 3.84375 -0.796875 L 3.84375 -0.15625 C 3.738281 -0.101562 3.5625 -0.0507812 3.3125 0 C 3.070312 0.0625 2.78125 0.09375 2.4375 0.09375 Z "/>
</g>
<g id="glyph-0-10">
<path d="M 3.0625 0.09375 C 2.21875 0.09375 1.570312 -0.144531 1.125 -0.625 C 0.6875 -1.101562 0.46875 -1.78125 0.46875 -2.65625 C 0.46875 -3.59375 0.679688 -4.296875 1.109375 -4.765625 C 1.546875 -5.242188 2.160156 -5.484375 2.953125 -5.484375 C 3.679688 -5.484375 4.253906 -5.28125 4.671875 -4.875 C 5.085938 -4.46875 5.296875 -3.867188 5.296875 -3.078125 L 5.296875 -2.5625 L 2.015625 -2.5625 C 2.035156 -1.894531 2.160156 -1.410156 2.390625 -1.109375 C 2.617188 -0.804688 2.9375 -0.65625 3.34375 -0.65625 C 3.695312 -0.65625 3.992188 -0.734375 4.234375 -0.890625 C 4.472656 -1.046875 4.648438 -1.234375 4.765625 -1.453125 C 4.941406 -1.359375 5.03125 -1.195312 5.03125 -0.96875 C 5.03125 -0.6875 4.867188 -0.4375 4.546875 -0.21875 C 4.222656 -0.0078125 3.726562 0.09375 3.0625 0.09375 Z M 3.765625 -3.203125 C 3.765625 -3.722656 3.703125 -4.125 3.578125 -4.40625 C 3.460938 -4.695312 3.257812 -4.84375 2.96875 -4.84375 C 2.6875 -4.84375 2.460938 -4.703125 2.296875 -4.421875 C 2.128906 -4.148438 2.039062 -3.742188 2.03125 -3.203125 Z "/>
</g>
<g id="glyph-0-11">
<path d="M 0.125 2.40625 L 0.125 1.875 L 0.25 1.875 C 0.351562 1.875 0.457031 1.859375 0.5625 1.828125 C 0.675781 1.796875 0.769531 1.734375 0.84375 1.640625 C 0.914062 1.546875 0.953125 1.40625 0.953125 1.21875 L 0.953125 -4.125 C 0.953125 -4.4375 0.890625 -4.628906 0.765625 -4.703125 C 0.640625 -4.785156 0.484375 -4.828125 0.296875 -4.828125 L 0.21875 -4.828125 L 0.21875 -5.359375 L 2.1875 -5.359375 L 2.359375 -4.578125 L 2.40625 -4.578125 C 2.550781 -4.835938 2.742188 -5.046875 2.984375 -5.203125 C 3.222656 -5.367188 3.539062 -5.453125 3.9375 -5.453125 C 4.601562 -5.453125 5.109375 -5.226562 5.453125 -4.78125 C 5.804688 -4.34375 5.984375 -3.632812 5.984375 -2.65625 C 5.984375 -1.6875 5.8125 -0.976562 5.46875 -0.53125 C 5.125 -0.09375 4.625 0.125 3.96875 0.125 C 3.59375 0.125 3.285156 0.0507812 3.046875 -0.09375 C 2.804688 -0.238281 2.613281 -0.4375 2.46875 -0.6875 L 2.40625 -0.6875 C 2.414062 -0.59375 2.425781 -0.460938 2.4375 -0.296875 C 2.445312 -0.140625 2.457031 0.0078125 2.46875 0.15625 C 2.476562 0.300781 2.484375 0.425781 2.484375 0.53125 L 2.484375 1.21875 C 2.484375 1.40625 2.519531 1.546875 2.59375 1.640625 C 2.664062 1.734375 2.757812 1.796875 2.875 1.828125 C 2.988281 1.859375 3.09375 1.875 3.1875 1.875 L 3.40625 1.875 L 3.40625 2.40625 Z M 3.5 -0.625 C 3.832031 -0.625 4.070312 -0.789062 4.21875 -1.125 C 4.363281 -1.457031 4.4375 -1.96875 4.4375 -2.65625 C 4.4375 -3.320312 4.363281 -3.828125 4.21875 -4.171875 C 4.082031 -4.523438 3.847656 -4.703125 3.515625 -4.703125 C 3.109375 -4.703125 2.832031 -4.523438 2.6875 -4.171875 C 2.550781 -3.828125 2.484375 -3.320312 2.484375 -2.65625 C 2.484375 -1.96875 2.550781 -1.457031 2.6875 -1.125 C 2.832031 -0.789062 3.101562 -0.625 3.5 -0.625 Z "/>
</g>
<g id="glyph-0-12">
<path d="M 1.703125 -6.265625 C 1.460938 -6.265625 1.257812 -6.320312 1.09375 -6.4375 C 0.9375 -6.550781 0.859375 -6.734375 0.859375 -6.984375 C 0.859375 -7.234375 0.9375 -7.414062 1.09375 -7.53125 C 1.257812 -7.644531 1.460938 -7.703125 1.703125 -7.703125 C 1.941406 -7.703125 2.144531 -7.644531 2.3125 -7.53125 C 2.476562 -7.414062 2.5625 -7.234375 2.5625 -6.984375 C 2.5625 -6.734375 2.476562 -6.550781 2.3125 -6.4375 C 2.144531 -6.320312 1.941406 -6.265625 1.703125 -6.265625 Z M 0.171875 0 L 0.171875 -0.53125 L 0.296875 -0.53125 C 0.390625 -0.53125 0.488281 -0.546875 0.59375 -0.578125 C 0.707031 -0.609375 0.800781 -0.671875 0.875 -0.765625 C 0.957031 -0.859375 1 -1 1 -1.1875 L 1 -4.21875 C 1 -4.394531 0.957031 -4.523438 0.875 -4.609375 C 0.800781 -4.703125 0.707031 -4.757812 0.59375 -4.78125 C 0.488281 -4.8125 0.390625 -4.828125 0.296875 -4.828125 L 0.171875 -4.828125 L 0.171875 -5.359375 L 2.515625 -5.359375 L 2.515625 -1.1875 C 2.515625 -1 2.550781 -0.859375 2.625 -0.765625 C 2.707031 -0.671875 2.804688 -0.609375 2.921875 -0.578125 C 3.035156 -0.546875 3.140625 -0.53125 3.234375 -0.53125 L 3.34375 -0.53125 L 3.34375 0 Z "/>
</g>
<g id="glyph-0-13">
<path d="M 0.1875 0 L 0.1875 -0.40625 L 3.125 -4.6875 L 1.671875 -4.6875 C 1.523438 -4.6875 1.410156 -4.632812 1.328125 -4.53125 C 1.242188 -4.4375 1.164062 -4.253906 1.09375 -3.984375 L 1.046875 -3.734375 L 0.4375 -3.734375 L 0.5625 -5.359375 L 4.875 -5.359375 L 4.875 -4.9375 L 1.921875 -0.6875 L 3.6875 -0.6875 C 3.882812 -0.6875 4.03125 -0.75 4.125 -0.875 C 4.21875 -1 4.289062 -1.203125 4.34375 -1.484375 L 4.40625 -1.8125 L 4.984375 -1.8125 L 4.9375 0 Z "/>
</g>
</g>
</defs>
<g fill="rgb(90.980392%, 90.980392%, 90.980392%)" fill-opacity="1">
<use xlink:href="#glyph-0-0" x="30" y="30.69043"/>
<use xlink:href="#glyph-0-1" x="37" y="30.69043"/>
<use xlink:href="#glyph-0-2" x="43" y="30.69043"/>
<use xlink:href="#glyph-0-3" x="46" y="30.69043"/>
<use xlink:href="#glyph-0-4" x="51" y="30.69043"/>
<use xlink:href="#glyph-0-5" x="58" y="30.69043"/>
<use xlink:href="#glyph-0-2" x="64" y="30.69043"/>
<use xlink:href="#glyph-0-6" x="67" y="30.69043"/>
<use xlink:href="#glyph-0-7" x="73" y="30.69043"/>
<use xlink:href="#glyph-0-2" x="79" y="30.69043"/>
<use xlink:href="#glyph-0-8" x="82" y="30.69043"/>
<use xlink:href="#glyph-0-9" x="87" y="30.69043"/>
<use xlink:href="#glyph-0-10" x="91" y="30.69043"/>
<use xlink:href="#glyph-0-11" x="97" y="30.69043"/>
<use xlink:href="#glyph-0-8" x="103" y="30.69043"/>
<use xlink:href="#glyph-0-12" x="108" y="30.69043"/>
<use xlink:href="#glyph-0-13" x="112" y="30.69043"/>
<use xlink:href="#glyph-0-10" x="117" y="30.69043"/>
</g>
</svg>
