<?xml version="1.0" encoding="UTF-8"?>
<svg xmlns="http://www.w3.org/2000/svg" xmlns:xlink="http://www.w3.org/1999/xlink" width="854" height="480" viewBox="0 0 854 480">
<defs>
<g>
<g id="glyph-0-0">
<path d="M 0.3125 -2.03125 C 0.765625 -1.390625 1.140625 -0.671875 1.375 0.03125 L 1.625 0 C 2.15625 -1.796875 2.6875 -3.140625 3.46875 -4.640625 L 3.25 -4.75 C 2.5 -3.34375 1.96875 -2 1.546875 -0.640625 C 1.34375 -1.25 1.0625 -1.78125 0.703125 -2.28125 Z "/>
</g>
<g id="glyph-1-0">
</g>
<g id="glyph-1-1">
<path d="M 0.8125 0 L 0.8125 -0.28125 L 1.03125 -0.28125 C 1.113281 -0.28125 1.175781 -0.296875 1.21875 -0.328125 C 1.269531 -0.367188 1.296875 -0.46875 1.296875 -0.625 L 1.296875 -3.453125 L 0.875 -3.453125 C 0.71875 -3.453125 0.609375 -3.414062 0.546875 -3.34375 C 0.492188 -3.28125 0.457031 -3.191406 0.4375 -3.078125 L 0.40625 -2.75 L 0.046875 -2.75 L 0.078125 -3.765625 L 3.375 -3.765625 L 3.390625 -2.75 L 3.046875 -2.75 L 3 -3.078125 C 2.988281 -3.191406 2.953125 -3.28125 2.890625 -3.34375 C 2.828125 -3.414062 2.71875 -3.453125 2.5625 -3.453125 L 2.140625 -3.453125 L 2.140625 -0.625 C 2.140625 -0.46875 2.164062 -0.367188 2.21875 -0.328125 C 2.269531 -0.296875 2.332031 -0.28125 2.40625 -0.28125 L 2.640625 -0.28125 L 2.640625 0 Z "/>
</g>
<g id="glyph-1-2">
<path d="M 0.109375 0 L 0.109375 -0.28125 L 0.125 -0.28125 C 0.238281 -0.28125 0.332031 -0.300781 0.40625 -0.34375 C 0.488281 -0.382812 0.53125 -0.488281 0.53125 -0.65625 L 0.53125 -2.1875 C 0.53125 -2.34375 0.492188 -2.441406 0.421875 -2.484375 C 0.359375 -2.523438 0.265625 -2.546875 0.140625 -2.546875 L 0.125 -2.546875 L 0.125 -2.828125 L 1.203125 -2.828125 L 1.296875 -2.421875 L 1.328125 -2.421875 C 1.398438 -2.578125 1.488281 -2.691406 1.59375 -2.765625 C 1.695312 -2.847656 1.859375 -2.890625 2.078125 -2.890625 C 2.484375 -2.890625 2.6875 -2.75 2.6875 -2.46875 C 2.6875 -2.300781 2.625 -2.171875 2.5 -2.078125 C 2.382812 -1.992188 2.222656 -1.953125 2.015625 -1.953125 C 2.015625 -2.097656 1.992188 -2.207031 1.953125 -2.28125 C 1.921875 -2.351562 1.851562 -2.390625 1.75 -2.390625 C 1.65625 -2.390625 1.582031 -2.359375 1.53125 -2.296875 C 1.476562 -2.234375 1.4375 -2.15625 1.40625 -2.0625 C 1.375 -1.96875 1.351562 -1.875 1.34375 -1.78125 C 1.332031 -1.6875 1.328125 -1.609375 1.328125 -1.546875 L 1.328125 -0.640625 C 1.328125 -0.484375 1.363281 -0.382812 1.4375 -0.34375 C 1.507812 -0.300781 1.597656 -0.28125 1.703125 -0.28125 L 1.875 -0.28125 L 1.875 0 Z "/>
</g>
<g id="glyph-1-3">
<path d="M 1.0625 0.046875 C 0.832031 0.046875 0.632812 -0.0195312 0.46875 -0.15625 C 0.3125 -0.300781 0.234375 -0.519531 0.234375 -0.8125 C 0.234375 -1.09375 0.332031 -1.300781 0.53125 -1.4375 C 0.726562 -1.570312 1.023438 -1.648438 1.421875 -1.671875 L 1.859375 -1.6875 L 1.859375 -1.96875 C 1.859375 -2.144531 1.835938 -2.289062 1.796875 -2.40625 C 1.765625 -2.519531 1.675781 -2.578125 1.53125 -2.578125 C 1.394531 -2.578125 1.300781 -2.519531 1.25 -2.40625 C 1.195312 -2.300781 1.171875 -2.164062 1.171875 -2 C 0.929688 -2 0.75 -2.023438 0.625 -2.078125 C 0.507812 -2.140625 0.453125 -2.234375 0.453125 -2.359375 C 0.453125 -2.492188 0.5 -2.597656 0.59375 -2.671875 C 0.695312 -2.742188 0.832031 -2.800781 1 -2.84375 C 1.164062 -2.882812 1.347656 -2.90625 1.546875 -2.90625 C 1.921875 -2.90625 2.195312 -2.835938 2.375 -2.703125 C 2.5625 -2.566406 2.65625 -2.332031 2.65625 -2 L 2.65625 -0.65625 C 2.65625 -0.507812 2.675781 -0.410156 2.71875 -0.359375 C 2.769531 -0.304688 2.851562 -0.28125 2.96875 -0.28125 L 3 -0.28125 L 3 0 L 2.015625 0 L 1.90625 -0.359375 L 1.859375 -0.359375 C 1.773438 -0.265625 1.695312 -0.1875 1.625 -0.125 C 1.5625 -0.0625 1.484375 -0.0195312 1.390625 0 C 1.304688 0.03125 1.195312 0.046875 1.0625 0.046875 Z M 1.359375 -0.328125 C 1.503906 -0.328125 1.625 -0.390625 1.71875 -0.515625 C 1.8125 -0.640625 1.859375 -0.804688 1.859375 -1.015625 L 1.859375 -1.40625 L 1.609375 -1.390625 C 1.398438 -1.378906 1.253906 -1.320312 1.171875 -1.21875 C 1.097656 -1.125 1.0625 -0.976562 1.0625 -0.78125 C 1.0625 -0.476562 1.160156 -0.328125 1.359375 -0.328125 Z "/>
</g>
<g id="glyph-1-4">
<path d="M 0.90625 -3.3125 C 0.78125 -3.3125 0.671875 -3.335938 0.578125 -3.390625 C 0.492188 -3.453125 0.453125 -3.550781 0.453125 -3.6875 C 0.453125 -3.820312 0.492188 -3.914062 0.578125 -3.96875 C 0.671875 -4.03125 0.78125 -4.0625 0.90625 -4.0625 C 1.03125 -4.0625 1.132812 -4.03125 1.21875 -3.96875 C 1.3125 -3.914062 1.359375 -3.820312 1.359375 -3.6875 C 1.359375 -3.550781 1.3125 -3.453125 1.21875 -3.390625 C 1.132812 -3.335938 1.03125 -3.3125 0.90625 -3.3125 Z M 0.09375 0 L 0.09375 -0.28125 L 0.15625 -0.28125 C 0.207031 -0.28125 0.257812 -0.285156 0.3125 -0.296875 C 0.375 -0.316406 0.425781 -0.347656 0.46875 -0.390625 C 0.507812 -0.441406 0.53125 -0.519531 0.53125 -0.625 L 0.53125 -2.234375 C 0.53125 -2.328125 0.507812 -2.394531 0.46875 -2.4375 C 0.425781 -2.488281 0.375 -2.519531 0.3125 -2.53125 C 0.257812 -2.539062 0.207031 -2.546875 0.15625 -2.546875 L 0.09375 -2.546875 L 0.09375 -2.828125 L 1.328125 -2.828125 L 1.328125 -0.625 C 1.328125 -0.519531 1.347656 -0.441406 1.390625 -0.390625 C 1.429688 -0.347656 1.476562 -0.316406 1.53125 -0.296875 C 1.59375 -0.285156 1.648438 -0.28125 1.703125 -0.28125 L 1.765625 -0.28125 L 1.765625 0 Z "/>
</g>
<g id="glyph-1-5">
<path d="M 0.109375 0 L 0.109375 -0.28125 C 0.234375 -0.28125 0.332031 -0.300781 0.40625 -0.34375 C 0.488281 -0.382812 0.53125 -0.484375 0.53125 -0.640625 L 0.53125 -2.203125 C 0.53125 -2.347656 0.492188 -2.441406 0.421875 -2.484375 C 0.359375 -2.523438 0.265625 -2.546875 0.140625 -2.546875 L 0.125 -2.546875 L 0.125 -2.828125 L 1.234375 -2.828125 L 1.3125 -2.453125 L 1.34375 -2.453125 C 1.40625 -2.585938 1.476562 -2.6875 1.5625 -2.75 C 1.644531 -2.8125 1.734375 -2.851562 1.828125 -2.875 C 1.929688 -2.894531 2.035156 -2.90625 2.140625 -2.90625 C 2.410156 -2.90625 2.625 -2.820312 2.78125 -2.65625 C 2.9375 -2.488281 3.015625 -2.226562 3.015625 -1.875 L 3.015625 -0.65625 C 3.015625 -0.488281 3.039062 -0.382812 3.09375 -0.34375 C 3.15625 -0.300781 3.25 -0.28125 3.375 -0.28125 L 3.390625 -0.28125 L 3.390625 0 L 2.21875 0 L 2.21875 -1.734375 C 2.21875 -1.960938 2.179688 -2.140625 2.109375 -2.265625 C 2.046875 -2.390625 1.941406 -2.453125 1.796875 -2.453125 C 1.671875 -2.453125 1.578125 -2.410156 1.515625 -2.328125 C 1.453125 -2.253906 1.40625 -2.15625 1.375 -2.03125 C 1.34375 -1.90625 1.328125 -1.769531 1.328125 -1.625 L 1.328125 -0.625 C 1.328125 -0.476562 1.359375 -0.382812 1.421875 -0.34375 C 1.492188 -0.300781 1.59375 -0.28125 1.71875 -0.28125 L 1.734375 -0.28125 L 1.734375 0 Z "/>
</g>
<g id="glyph-1-6">
<path d="M 0.09375 0 L 0.09375 -0.28125 L 0.15625 -0.28125 C 0.207031 -0.28125 0.257812 -0.285156 0.3125 -0.296875 C 0.375 -0.316406 0.425781 -0.347656 0.46875 -0.390625 C 0.507812 -0.441406 0.53125 -0.519531 0.53125 -0.625 L 0.53125 -3.40625 C 0.53125 -3.5 0.507812 -3.566406 0.46875 -3.609375 C 0.425781 -3.660156 0.375 -3.691406 0.3125 -3.703125 C 0.257812 -3.722656 0.207031 -3.734375 0.15625 -3.734375 L 0.09375 -3.734375 L 0.09375 -4.015625 L 1.328125 -4.015625 L 1.328125 -0.625 C 1.328125 -0.519531 1.347656 -0.441406 1.390625 -0.390625 C 1.429688 -0.347656 1.476562 -0.316406 1.53125 -0.296875 C 1.59375 -0.285156 1.648438 -0.28125 1.703125 -0.28125 L 1.765625 -0.28125 L 1.765625 0 Z "/>
</g>
<g id="glyph-1-7">
<path d="M 1.609375 0.046875 C 1.191406 0.046875 0.859375 -0.0703125 0.609375 -0.3125 C 0.367188 -0.5625 0.25 -0.929688 0.25 -1.421875 C 0.25 -1.921875 0.363281 -2.289062 0.59375 -2.53125 C 0.832031 -2.78125 1.175781 -2.90625 1.625 -2.90625 C 2.050781 -2.90625 2.382812 -2.78125 2.625 -2.53125 C 2.863281 -2.289062 2.984375 -1.921875 2.984375 -1.421875 C 2.984375 -0.929688 2.863281 -0.5625 2.625 -0.3125 C 2.394531 -0.0703125 2.054688 0.046875 1.609375 0.046875 Z M 1.625 -0.28125 C 1.820312 -0.28125 1.960938 -0.375 2.046875 -0.5625 C 2.128906 -0.757812 2.171875 -1.046875 2.171875 -1.421875 C 2.171875 -1.796875 2.128906 -2.078125 2.046875 -2.265625 C 1.960938 -2.460938 1.816406 -2.5625 1.609375 -2.5625 C 1.410156 -2.5625 1.269531 -2.460938 1.1875 -2.265625 C 1.101562 -2.078125 1.0625 -1.796875 1.0625 -1.421875 C 1.0625 -1.046875 1.101562 -0.757812 1.1875 -0.5625 C 1.269531 -0.375 1.414062 -0.28125 1.625 -0.28125 Z "/>
</g>
<g id="glyph-1-8">
<path d="M 1.21875 0.046875 C 0.832031 0.046875 0.554688 -0.0078125 0.390625 -0.125 C 0.234375 -0.238281 0.15625 -0.382812 0.15625 -0.5625 C 0.15625 -0.675781 0.179688 -0.757812 0.234375 -0.8125 C 0.296875 -0.875 0.363281 -0.914062 0.4375 -0.9375 C 0.519531 -0.957031 0.59375 -0.96875 0.65625 -0.96875 C 0.65625 -0.75 0.707031 -0.578125 0.8125 -0.453125 C 0.914062 -0.328125 1.050781 -0.265625 1.21875 -0.265625 C 1.40625 -0.265625 1.539062 -0.296875 1.625 -0.359375 C 1.707031 -0.429688 1.75 -0.519531 1.75 -0.625 C 1.75 -0.738281 1.703125 -0.832031 1.609375 -0.90625 C 1.515625 -0.976562 1.34375 -1.054688 1.09375 -1.140625 C 0.8125 -1.242188 0.59375 -1.363281 0.4375 -1.5 C 0.289062 -1.632812 0.21875 -1.816406 0.21875 -2.046875 C 0.21875 -2.335938 0.316406 -2.550781 0.515625 -2.6875 C 0.722656 -2.820312 1 -2.890625 1.34375 -2.890625 C 1.5625 -2.890625 1.738281 -2.863281 1.875 -2.8125 C 2.019531 -2.769531 2.117188 -2.710938 2.171875 -2.640625 C 2.234375 -2.566406 2.265625 -2.488281 2.265625 -2.40625 C 2.265625 -2.28125 2.222656 -2.1875 2.140625 -2.125 C 2.054688 -2.0625 1.921875 -2.03125 1.734375 -2.03125 C 1.734375 -2.207031 1.691406 -2.34375 1.609375 -2.4375 C 1.535156 -2.539062 1.421875 -2.59375 1.265625 -2.59375 C 1.148438 -2.59375 1.050781 -2.5625 0.96875 -2.5 C 0.882812 -2.445312 0.84375 -2.367188 0.84375 -2.265625 C 0.84375 -2.191406 0.863281 -2.125 0.90625 -2.0625 C 0.945312 -2.007812 1.019531 -1.957031 1.125 -1.90625 C 1.226562 -1.851562 1.375 -1.796875 1.5625 -1.734375 C 1.800781 -1.648438 1.992188 -1.539062 2.140625 -1.40625 C 2.285156 -1.269531 2.359375 -1.09375 2.359375 -0.875 C 2.359375 -0.582031 2.257812 -0.351562 2.0625 -0.1875 C 1.863281 -0.03125 1.582031 0.046875 1.21875 0.046875 Z "/>
</g>
<g id="glyph-1-9">
<path d="M 1.484375 0.046875 C 1.160156 0.046875 0.898438 -0.03125 0.703125 -0.1875 C 0.515625 -0.351562 0.378906 -0.582031 0.296875 -0.875 C 0.210938 -1.164062 0.171875 -1.503906 0.171875 -1.890625 C 0.171875 -2.285156 0.210938 -2.625 0.296875 -2.90625 C 0.378906 -3.195312 0.515625 -3.421875 0.703125 -3.578125 C 0.898438 -3.742188 1.160156 -3.828125 1.484375 -3.828125 C 1.785156 -3.828125 2.03125 -3.742188 2.21875 -3.578125 C 2.414062 -3.421875 2.554688 -3.195312 2.640625 -2.90625 C 2.722656 -2.625 2.765625 -2.285156 2.765625 -1.890625 C 2.765625 -1.492188 2.722656 -1.148438 2.640625 -0.859375 C 2.554688 -0.578125 2.414062 -0.351562 2.21875 -0.1875 C 2.03125 -0.03125 1.785156 0.046875 1.484375 0.046875 Z M 1.484375 -0.296875 C 1.679688 -0.296875 1.804688 -0.4375 1.859375 -0.71875 C 1.921875 -1 1.953125 -1.390625 1.953125 -1.890625 C 1.953125 -2.390625 1.921875 -2.78125 1.859375 -3.0625 C 1.804688 -3.34375 1.679688 -3.484375 1.484375 -3.484375 C 1.285156 -3.484375 1.15625 -3.34375 1.09375 -3.0625 C 1.03125 -2.78125 1 -2.390625 1 -1.890625 C 1 -1.390625 1.03125 -1 1.09375 -0.71875 C 1.15625 -0.4375 1.285156 -0.296875 1.484375 -0.296875 Z "/>
</g>
<g id="glyph-1-10">
<path d="M 1.28125 0.046875 C 1.039062 0.046875 0.847656 -0.0078125 0.703125 -0.125 C 0.566406 -0.25 0.5 -0.46875 0.5 -0.78125 L 0.5 -2.46875 L 0.109375 -2.46875 L 0.109375 -2.734375 C 0.222656 -2.734375 0.320312 -2.753906 0.40625 -2.796875 C 0.5 -2.847656 0.570312 -2.90625 0.625 -2.96875 C 0.738281 -3.082031 0.820312 -3.253906 0.875 -3.484375 L 1.3125 -3.484375 L 1.3125 -2.828125 L 1.984375 -2.828125 L 1.984375 -2.46875 L 1.3125 -2.46875 L 1.3125 -0.828125 C 1.3125 -0.671875 1.335938 -0.554688 1.390625 -0.484375 C 1.441406 -0.410156 1.53125 -0.375 1.65625 -0.375 C 1.726562 -0.375 1.796875 -0.378906 1.859375 -0.390625 C 1.921875 -0.398438 1.976562 -0.410156 2.03125 -0.421875 L 2.03125 -0.078125 C 1.976562 -0.0546875 1.882812 -0.03125 1.75 0 C 1.625 0.03125 1.46875 0.046875 1.28125 0.046875 Z "/>
</g>
<g id="glyph-1-11">
<path d="M 1.25 1.265625 C 0.425781 1.265625 0.015625 1.019531 0.015625 0.53125 C 0.015625 0.34375 0.0703125 0.195312 0.1875 0.09375 C 0.3125 0 0.488281 -0.0546875 0.71875 -0.078125 C 0.625 -0.117188 0.535156 -0.175781 0.453125 -0.25 C 0.378906 -0.320312 0.34375 -0.421875 0.34375 -0.546875 C 0.34375 -0.660156 0.382812 -0.757812 0.46875 -0.84375 C 0.5625 -0.9375 0.675781 -1.023438 0.8125 -1.109375 C 0.65625 -1.160156 0.523438 -1.253906 0.421875 -1.390625 C 0.316406 -1.523438 0.265625 -1.703125 0.265625 -1.921875 C 0.265625 -2.234375 0.351562 -2.472656 0.53125 -2.640625 C 0.71875 -2.816406 1 -2.90625 1.375 -2.90625 C 1.5 -2.90625 1.613281 -2.882812 1.71875 -2.84375 C 1.832031 -2.8125 1.925781 -2.773438 2 -2.734375 C 2.09375 -2.835938 2.179688 -2.910156 2.265625 -2.953125 C 2.347656 -3.003906 2.441406 -3.03125 2.546875 -3.03125 C 2.671875 -3.03125 2.765625 -3 2.828125 -2.9375 C 2.898438 -2.882812 2.9375 -2.816406 2.9375 -2.734375 C 2.9375 -2.648438 2.90625 -2.578125 2.84375 -2.515625 C 2.789062 -2.453125 2.695312 -2.421875 2.5625 -2.421875 C 2.5625 -2.492188 2.535156 -2.550781 2.484375 -2.59375 C 2.441406 -2.632812 2.398438 -2.65625 2.359375 -2.65625 C 2.285156 -2.65625 2.226562 -2.632812 2.1875 -2.59375 C 2.25 -2.519531 2.304688 -2.421875 2.359375 -2.296875 C 2.410156 -2.179688 2.4375 -2.054688 2.4375 -1.921875 C 2.4375 -1.648438 2.347656 -1.425781 2.171875 -1.25 C 2.003906 -1.082031 1.738281 -1 1.375 -1 C 1.332031 -1 1.273438 -1 1.203125 -1 C 1.140625 -1.007812 1.09375 -1.015625 1.0625 -1.015625 C 1.019531 -0.992188 0.976562 -0.957031 0.9375 -0.90625 C 0.894531 -0.863281 0.875 -0.8125 0.875 -0.75 C 0.875 -0.6875 0.894531 -0.640625 0.9375 -0.609375 C 0.988281 -0.585938 1.050781 -0.578125 1.125 -0.578125 L 1.765625 -0.578125 C 2.117188 -0.578125 2.375 -0.503906 2.53125 -0.359375 C 2.695312 -0.210938 2.78125 -0.015625 2.78125 0.234375 C 2.78125 0.554688 2.65625 0.804688 2.40625 0.984375 C 2.15625 1.171875 1.769531 1.265625 1.25 1.265625 Z M 1.359375 -1.3125 C 1.492188 -1.3125 1.585938 -1.363281 1.640625 -1.46875 C 1.691406 -1.582031 1.71875 -1.734375 1.71875 -1.921875 C 1.71875 -2.117188 1.691406 -2.273438 1.640625 -2.390625 C 1.585938 -2.515625 1.492188 -2.578125 1.359375 -2.578125 C 1.210938 -2.578125 1.113281 -2.515625 1.0625 -2.390625 C 1.007812 -2.273438 0.984375 -2.117188 0.984375 -1.921875 C 0.984375 -1.734375 1.007812 -1.582031 1.0625 -1.46875 C 1.125 -1.363281 1.222656 -1.3125 1.359375 -1.3125 Z M 1.25 0.953125 C 1.5625 0.953125 1.785156 0.90625 1.921875 0.8125 C 2.066406 0.726562 2.140625 0.597656 2.140625 0.421875 C 2.140625 0.304688 2.101562 0.226562 2.03125 0.1875 C 1.96875 0.144531 1.863281 0.125 1.71875 0.125 L 1.109375 0.125 C 1.035156 0.125 0.960938 0.128906 0.890625 0.140625 C 0.816406 0.160156 0.753906 0.195312 0.703125 0.25 C 0.660156 0.3125 0.640625 0.398438 0.640625 0.515625 C 0.640625 0.804688 0.84375 0.953125 1.25 0.953125 Z "/>
</g>
<g id="glyph-1-12">
<path d="M 1.5625 0.046875 C 1.300781 0.046875 1.070312 0 0.875 -0.09375 C 0.675781 -0.1875 0.519531 -0.335938 0.40625 -0.546875 C 0.300781 -0.753906 0.25 -1.039062 0.25 -1.40625 C 0.25 -1.78125 0.304688 -2.078125 0.421875 -2.296875 C 0.535156 -2.515625 0.6875 -2.671875 0.875 -2.765625 C 1.070312 -2.859375 1.296875 -2.90625 1.546875 -2.90625 C 1.878906 -2.90625 2.132812 -2.847656 2.3125 -2.734375 C 2.5 -2.628906 2.59375 -2.5 2.59375 -2.34375 C 2.59375 -2.269531 2.570312 -2.195312 2.53125 -2.125 C 2.5 -2.0625 2.429688 -2.003906 2.328125 -1.953125 C 2.234375 -1.910156 2.09375 -1.890625 1.90625 -1.890625 C 1.90625 -2.015625 1.894531 -2.128906 1.875 -2.234375 C 1.851562 -2.335938 1.816406 -2.421875 1.765625 -2.484375 C 1.710938 -2.546875 1.644531 -2.578125 1.5625 -2.578125 C 1.457031 -2.578125 1.367188 -2.539062 1.296875 -2.46875 C 1.222656 -2.40625 1.164062 -2.285156 1.125 -2.109375 C 1.082031 -1.941406 1.0625 -1.707031 1.0625 -1.40625 C 1.0625 -1.050781 1.109375 -0.785156 1.203125 -0.609375 C 1.304688 -0.429688 1.46875 -0.34375 1.6875 -0.34375 C 1.875 -0.34375 2.03125 -0.382812 2.15625 -0.46875 C 2.289062 -0.550781 2.390625 -0.648438 2.453125 -0.765625 C 2.492188 -0.742188 2.523438 -0.710938 2.546875 -0.671875 C 2.566406 -0.628906 2.578125 -0.582031 2.578125 -0.53125 C 2.578125 -0.4375 2.539062 -0.34375 2.46875 -0.25 C 2.394531 -0.164062 2.285156 -0.09375 2.140625 -0.03125 C 1.992188 0.0195312 1.800781 0.046875 1.5625 0.046875 Z "/>
</g>
<g id="glyph-1-13">
<path d="M 1.3125 -3.53125 C 1.425781 -3.550781 1.507812 -3.585938 1.5625 -3.640625 C 1.613281 -3.691406 1.640625 -3.753906 1.640625 -3.828125 C 1.640625 -3.910156 1.617188 -3.972656 1.578125 -4.015625 C 1.546875 -4.054688 1.5 -4.078125 1.4375 -4.078125 C 1.363281 -4.078125 1.304688 -4.054688 1.265625 -4.015625 C 1.234375 -3.984375 1.207031 -3.9375 1.1875 -3.875 C 1.125 -3.875 1.066406 -3.890625 1.015625 -3.921875 C 0.972656 -3.953125 0.953125 -4 0.953125 -4.0625 C 0.953125 -4.132812 0.976562 -4.191406 1.03125 -4.234375 C 1.082031 -4.273438 1.144531 -4.304688 1.21875 -4.328125 C 1.300781 -4.347656 1.382812 -4.359375 1.46875 -4.359375 C 1.894531 -4.359375 2.109375 -4.195312 2.109375 -3.875 C 2.109375 -3.625 1.972656 -3.46875 1.703125 -3.40625 L 1.671875 -3.109375 L 1.34375 -3.109375 Z M 1.0625 0.046875 C 0.832031 0.046875 0.632812 -0.0195312 0.46875 -0.15625 C 0.3125 -0.300781 0.234375 -0.519531 0.234375 -0.8125 C 0.234375 -1.09375 0.332031 -1.300781 0.53125 -1.4375 C 0.726562 -1.570312 1.023438 -1.648438 1.421875 -1.671875 L 1.859375 -1.6875 L 1.859375 -1.96875 C 1.859375 -2.144531 1.835938 -2.289062 1.796875 -2.40625 C 1.765625 -2.519531 1.675781 -2.578125 1.53125 -2.578125 C 1.394531 -2.578125 1.300781 -2.519531 1.25 -2.40625 C 1.195312 -2.300781 1.171875 -2.164062 1.171875 -2 C 0.929688 -2 0.75 -2.023438 0.625 -2.078125 C 0.507812 -2.140625 0.453125 -2.234375 0.453125 -2.359375 C 0.453125 -2.492188 0.5 -2.597656 0.59375 -2.671875 C 0.695312 -2.742188 0.832031 -2.800781 1 -2.84375 C 1.164062 -2.882812 1.347656 -2.90625 1.546875 -2.90625 C 1.921875 -2.90625 2.195312 -2.835938 2.375 -2.703125 C 2.5625 -2.566406 2.65625 -2.332031 2.65625 -2 L 2.65625 -0.65625 C 2.65625 -0.507812 2.675781 -0.410156 2.71875 -0.359375 C 2.769531 -0.304688 2.851562 -0.28125 2.96875 -0.28125 L 3 -0.28125 L 3 0 L 2.015625 0 L 1.90625 -0.359375 L 1.859375 -0.359375 C 1.773438 -0.265625 1.695312 -0.1875 1.625 -0.125 C 1.5625 -0.0625 1.484375 -0.0195312 1.390625 0 C 1.304688 0.03125 1.195312 0.046875 1.0625 0.046875 Z M 1.359375 -0.328125 C 1.503906 -0.328125 1.625 -0.390625 1.71875 -0.515625 C 1.8125 -0.640625 1.859375 -0.804688 1.859375 -1.015625 L 1.859375 -1.40625 L 1.609375 -1.390625 C 1.398438 -1.378906 1.253906 -1.320312 1.171875 -1.21875 C 1.097656 -1.125 1.0625 -0.976562 1.0625 -0.78125 C 1.0625 -0.476562 1.160156 -0.328125 1.359375 -0.328125 Z "/>
</g>
<g id="glyph-1-14">
<path d="M 0.109375 0 L 0.109375 -0.28125 C 0.234375 -0.28125 0.332031 -0.300781 0.40625 -0.34375 C 0.488281 -0.382812 0.53125 -0.484375 0.53125 -0.640625 L 0.53125 -3.40625 C 0.53125 -3.5 0.507812 -3.566406 0.46875 -3.609375 C 0.425781 -3.660156 0.375 -3.691406 0.3125 -3.703125 C 0.257812 -3.722656 0.207031 -3.734375 0.15625 -3.734375 L 0.09375 -3.734375 L 0.09375 -4.015625 L 1.328125 -4.015625 L 1.328125 -3.140625 C 1.328125 -3.046875 1.320312 -2.945312 1.3125 -2.84375 C 1.3125 -2.738281 1.304688 -2.648438 1.296875 -2.578125 C 1.285156 -2.503906 1.28125 -2.46875 1.28125 -2.46875 L 1.34375 -2.46875 C 1.40625 -2.601562 1.476562 -2.703125 1.5625 -2.765625 C 1.644531 -2.828125 1.734375 -2.863281 1.828125 -2.875 C 1.929688 -2.894531 2.035156 -2.90625 2.140625 -2.90625 C 2.410156 -2.90625 2.625 -2.820312 2.78125 -2.65625 C 2.9375 -2.488281 3.015625 -2.226562 3.015625 -1.875 L 3.015625 -0.65625 C 3.015625 -0.488281 3.039062 -0.382812 3.09375 -0.34375 C 3.15625 -0.300781 3.25 -0.28125 3.375 -0.28125 L 3.390625 -0.28125 L 3.390625 0 L 2.21875 0 L 2.21875 -1.734375 C 2.21875 -1.960938 2.179688 -2.140625 2.109375 -2.265625 C 2.046875 -2.390625 1.941406 -2.453125 1.796875 -2.453125 C 1.671875 -2.453125 1.578125 -2.410156 1.515625 -2.328125 C 1.453125 -2.253906 1.40625 -2.15625 1.375 -2.03125 C 1.34375 -1.90625 1.328125 -1.769531 1.328125 -1.625 L 1.34375 -0.625 C 1.34375 -0.476562 1.375 -0.382812 1.4375 -0.34375 C 1.5 -0.300781 1.59375 -0.28125 1.71875 -0.28125 L 1.734375 -0.28125 L 1.734375 0 Z "/>
</g>
<g id="glyph-1-15">
<path d="M 1.359375 0.046875 C 1.085938 0.046875 0.875 -0.0351562 0.71875 -0.203125 C 0.570312 -0.367188 0.5 -0.632812 0.5 -1 L 0.5 -2.171875 C 0.5 -2.328125 0.472656 -2.425781 0.421875 -2.46875 C 0.367188 -2.519531 0.273438 -2.546875 0.140625 -2.546875 L 0.140625 -2.828125 L 1.3125 -2.828125 L 1.3125 -1.140625 C 1.3125 -0.910156 1.335938 -0.726562 1.390625 -0.59375 C 1.453125 -0.457031 1.5625 -0.390625 1.71875 -0.390625 C 1.882812 -0.390625 2.003906 -0.460938 2.078125 -0.609375 C 2.148438 -0.753906 2.1875 -0.953125 2.1875 -1.203125 L 2.1875 -2.21875 C 2.1875 -2.363281 2.148438 -2.453125 2.078125 -2.484375 C 2.003906 -2.523438 1.914062 -2.546875 1.8125 -2.546875 L 1.796875 -2.546875 L 1.796875 -2.828125 L 3 -2.828125 L 3 -2.125 C 3.175781 -2.132812 3.320312 -2.164062 3.4375 -2.21875 C 3.550781 -2.28125 3.609375 -2.375 3.609375 -2.5 C 3.609375 -2.550781 3.59375 -2.59375 3.5625 -2.625 C 3.53125 -2.65625 3.492188 -2.679688 3.453125 -2.703125 C 3.421875 -2.734375 3.390625 -2.769531 3.359375 -2.8125 C 3.335938 -2.851562 3.328125 -2.914062 3.328125 -3 C 3.328125 -3.09375 3.359375 -3.164062 3.421875 -3.21875 C 3.484375 -3.28125 3.566406 -3.3125 3.671875 -3.3125 C 3.796875 -3.3125 3.894531 -3.265625 3.96875 -3.171875 C 4.039062 -3.085938 4.078125 -2.96875 4.078125 -2.8125 C 4.078125 -2.5625 3.976562 -2.347656 3.78125 -2.171875 C 3.59375 -2.003906 3.332031 -1.90625 3 -1.875 L 3 -0.609375 C 3 -0.460938 3.03125 -0.367188 3.09375 -0.328125 C 3.15625 -0.296875 3.238281 -0.28125 3.34375 -0.28125 L 3.390625 -0.28125 L 3.390625 0 L 2.34375 0 L 2.21875 -0.375 L 2.203125 -0.375 C 2.085938 -0.1875 1.957031 -0.0664062 1.8125 -0.015625 C 1.675781 0.0234375 1.523438 0.046875 1.359375 0.046875 Z "/>
</g>
<g id="glyph-1-16">
<path d="M 1.578125 -3.203125 C 1.492188 -3.253906 1.398438 -3.3125 1.296875 -3.375 C 1.203125 -3.445312 1.109375 -3.519531 1.015625 -3.59375 C 0.921875 -3.675781 0.835938 -3.75 0.765625 -3.8125 C 0.691406 -3.882812 0.640625 -3.945312 0.609375 -4 L 0.609375 -4.046875 L 1.4375 -4.046875 C 1.46875 -3.960938 1.515625 -3.875 1.578125 -3.78125 C 1.640625 -3.6875 1.703125 -3.59375 1.765625 -3.5 C 1.835938 -3.414062 1.894531 -3.335938 1.9375 -3.265625 L 1.9375 -3.203125 Z M 1.609375 0.046875 C 1.191406 0.046875 0.859375 -0.0703125 0.609375 -0.3125 C 0.367188 -0.5625 0.25 -0.929688 0.25 -1.421875 C 0.25 -1.921875 0.363281 -2.289062 0.59375 -2.53125 C 0.832031 -2.78125 1.175781 -2.90625 1.625 -2.90625 C 1.90625 -2.90625 2.148438 -2.847656 2.359375 -2.734375 C 2.566406 -2.617188 2.722656 -2.453125 2.828125 -2.234375 C 2.898438 -2.265625 2.953125 -2.300781 2.984375 -2.34375 C 3.023438 -2.382812 3.046875 -2.4375 3.046875 -2.5 C 3.046875 -2.550781 3.03125 -2.59375 3 -2.625 C 2.96875 -2.65625 2.929688 -2.679688 2.890625 -2.703125 C 2.859375 -2.734375 2.828125 -2.769531 2.796875 -2.8125 C 2.765625 -2.851562 2.75 -2.914062 2.75 -3 C 2.75 -3.09375 2.78125 -3.164062 2.84375 -3.21875 C 2.914062 -3.28125 3.003906 -3.3125 3.109375 -3.3125 C 3.222656 -3.3125 3.316406 -3.265625 3.390625 -3.171875 C 3.472656 -3.085938 3.515625 -2.96875 3.515625 -2.8125 C 3.515625 -2.644531 3.46875 -2.488281 3.375 -2.34375 C 3.28125 -2.207031 3.128906 -2.085938 2.921875 -1.984375 C 2.941406 -1.898438 2.957031 -1.8125 2.96875 -1.71875 C 2.976562 -1.625 2.984375 -1.523438 2.984375 -1.421875 C 2.984375 -0.929688 2.863281 -0.5625 2.625 -0.3125 C 2.394531 -0.0703125 2.054688 0.046875 1.609375 0.046875 Z M 1.625 -0.28125 C 1.820312 -0.28125 1.960938 -0.375 2.046875 -0.5625 C 2.128906 -0.757812 2.171875 -1.046875 2.171875 -1.421875 C 2.171875 -1.796875 2.128906 -2.078125 2.046875 -2.265625 C 1.960938 -2.460938 1.816406 -2.5625 1.609375 -2.5625 C 1.410156 -2.5625 1.269531 -2.460938 1.1875 -2.265625 C 1.101562 -2.078125 1.0625 -1.796875 1.0625 -1.421875 C 1.0625 -1.046875 1.101562 -0.757812 1.1875 -0.5625 C 1.269531 -0.375 1.414062 -0.28125 1.625 -0.28125 Z "/>
</g>
<g id="glyph-1-17">
<path d="M 1.609375 0.046875 C 1.191406 0.046875 0.859375 -0.0703125 0.609375 -0.3125 C 0.367188 -0.5625 0.25 -0.929688 0.25 -1.421875 C 0.25 -1.921875 0.363281 -2.289062 0.59375 -2.53125 C 0.832031 -2.78125 1.175781 -2.90625 1.625 -2.90625 C 1.90625 -2.90625 2.148438 -2.847656 2.359375 -2.734375 C 2.566406 -2.617188 2.722656 -2.453125 2.828125 -2.234375 C 2.898438 -2.265625 2.953125 -2.300781 2.984375 -2.34375 C 3.023438 -2.382812 3.046875 -2.4375 3.046875 -2.5 C 3.046875 -2.550781 3.03125 -2.59375 3 -2.625 C 2.96875 -2.65625 2.929688 -2.679688 2.890625 -2.703125 C 2.859375 -2.734375 2.828125 -2.769531 2.796875 -2.8125 C 2.765625 -2.851562 2.75 -2.914062 2.75 -3 C 2.75 -3.09375 2.78125 -3.164062 2.84375 -3.21875 C 2.914062 -3.28125 3.003906 -3.3125 3.109375 -3.3125 C 3.222656 -3.3125 3.316406 -3.265625 3.390625 -3.171875 C 3.472656 -3.085938 3.515625 -2.96875 3.515625 -2.8125 C 3.515625 -2.644531 3.46875 -2.488281 3.375 -2.34375 C 3.28125 -2.207031 3.128906 -2.085938 2.921875 -1.984375 C 2.941406 -1.898438 2.957031 -1.8125 2.96875 -1.71875 C 2.976562 -1.625 2.984375 -1.523438 2.984375 -1.421875 C 2.984375 -0.929688 2.863281 -0.5625 2.625 -0.3125 C 2.394531 -0.0703125 2.054688 0.046875 1.609375 0.046875 Z M 1.625 -0.28125 C 1.820312 -0.28125 1.960938 -0.375 2.046875 -0.5625 C 2.128906 -0.757812 2.171875 -1.046875 2.171875 -1.421875 C 2.171875 -1.796875 2.128906 -2.078125 2.046875 -2.265625 C 1.960938 -2.460938 1.816406 -2.5625 1.609375 -2.5625 C 1.410156 -2.5625 1.269531 -2.460938 1.1875 -2.265625 C 1.101562 -2.078125 1.0625 -1.796875 1.0625 -1.421875 C 1.0625 -1.046875 1.101562 -0.757812 1.1875 -0.5625 C 1.269531 -0.375 1.414062 -0.28125 1.625 -0.28125 Z M 1.609375 1.078125 C 1.484375 1.078125 1.375 1.046875 1.28125 0.984375 C 1.195312 0.921875 1.15625 0.820312 1.15625 0.6875 C 1.15625 0.550781 1.195312 0.453125 1.28125 0.390625 C 1.375 0.335938 1.484375 0.3125 1.609375 0.3125 C 1.734375 0.3125 1.835938 0.335938 1.921875 0.390625 C 2.015625 0.453125 2.0625 0.550781 2.0625 0.6875 C 2.0625 0.820312 2.015625 0.921875 1.921875 0.984375 C 1.835938 1.046875 1.734375 1.078125 1.609375 1.078125 Z "/>
</g>
<g id="glyph-1-18">
<path d="M 0.0625 1.265625 L 0.0625 0.984375 L 0.125 0.984375 C 0.1875 0.984375 0.242188 0.972656 0.296875 0.953125 C 0.359375 0.941406 0.40625 0.910156 0.4375 0.859375 C 0.476562 0.816406 0.5 0.742188 0.5 0.640625 L 0.5 -2.1875 C 0.5 -2.34375 0.46875 -2.441406 0.40625 -2.484375 C 0.34375 -2.523438 0.257812 -2.546875 0.15625 -2.546875 L 0.109375 -2.546875 L 0.109375 -2.828125 L 1.15625 -2.828125 L 1.25 -2.421875 L 1.265625 -2.421875 C 1.347656 -2.554688 1.453125 -2.664062 1.578125 -2.75 C 1.703125 -2.84375 1.867188 -2.890625 2.078125 -2.890625 C 2.429688 -2.890625 2.695312 -2.769531 2.875 -2.53125 C 3.0625 -2.289062 3.15625 -1.914062 3.15625 -1.40625 C 3.15625 -0.894531 3.0625 -0.519531 2.875 -0.28125 C 2.695312 -0.0507812 2.4375 0.0625 2.09375 0.0625 C 1.894531 0.0625 1.734375 0.0234375 1.609375 -0.046875 C 1.484375 -0.117188 1.378906 -0.222656 1.296875 -0.359375 L 1.265625 -0.359375 C 1.273438 -0.304688 1.28125 -0.238281 1.28125 -0.15625 C 1.289062 -0.0703125 1.296875 0.00390625 1.296875 0.078125 C 1.304688 0.160156 1.3125 0.226562 1.3125 0.28125 L 1.3125 0.640625 C 1.3125 0.742188 1.332031 0.816406 1.375 0.859375 C 1.414062 0.910156 1.460938 0.941406 1.515625 0.953125 C 1.578125 0.972656 1.632812 0.984375 1.6875 0.984375 L 1.796875 0.984375 L 1.796875 1.265625 Z M 1.84375 -0.328125 C 2.019531 -0.328125 2.144531 -0.414062 2.21875 -0.59375 C 2.300781 -0.769531 2.34375 -1.039062 2.34375 -1.40625 C 2.34375 -1.75 2.304688 -2.015625 2.234375 -2.203125 C 2.160156 -2.390625 2.035156 -2.484375 1.859375 -2.484375 C 1.640625 -2.484375 1.492188 -2.390625 1.421875 -2.203125 C 1.347656 -2.015625 1.3125 -1.75 1.3125 -1.40625 C 1.3125 -1.039062 1.347656 -0.769531 1.421875 -0.59375 C 1.492188 -0.414062 1.632812 -0.328125 1.84375 -0.328125 Z "/>
</g>
<g id="glyph-1-19">
<path d="M 0.828125 -1.203125 L 0.546875 -3.765625 L 1.46875 -3.765625 L 1.1875 -1.203125 Z M 1.015625 0.046875 C 0.890625 0.046875 0.785156 0.015625 0.703125 -0.046875 C 0.617188 -0.109375 0.578125 -0.21875 0.578125 -0.375 C 0.578125 -0.539062 0.617188 -0.648438 0.703125 -0.703125 C 0.785156 -0.765625 0.890625 -0.796875 1.015625 -0.796875 C 1.128906 -0.796875 1.226562 -0.765625 1.3125 -0.703125 C 1.40625 -0.648438 1.453125 -0.539062 1.453125 -0.375 C 1.453125 -0.21875 1.40625 -0.109375 1.3125 -0.046875 C 1.226562 0.015625 1.128906 0.046875 1.015625 0.046875 Z "/>
</g>
<g id="glyph-2-0">
<path d="M 3.859375 -1.609375 L 3.859375 -1.078125 C 3.703125 -0.929688 3.539062 -0.820312 3.375 -0.75 C 3.21875 -0.675781 3.054688 -0.640625 2.890625 -0.640625 C 2.722656 -0.640625 2.507812 -0.691406 2.25 -0.796875 C 2.21875 -0.796875 2.191406 -0.800781 2.171875 -0.8125 C 2.160156 -0.8125 2.144531 -0.816406 2.125 -0.828125 C 1.832031 -0.941406 1.601562 -1 1.4375 -1 C 1.300781 -1 1.160156 -0.96875 1.015625 -0.90625 C 0.878906 -0.84375 0.726562 -0.75 0.5625 -0.625 L 0.5625 -1.15625 C 0.726562 -1.3125 0.890625 -1.421875 1.046875 -1.484375 C 1.203125 -1.554688 1.367188 -1.59375 1.546875 -1.59375 C 1.703125 -1.59375 1.910156 -1.546875 2.171875 -1.453125 C 2.203125 -1.429688 2.226562 -1.421875 2.25 -1.421875 L 2.28125 -1.40625 C 2.582031 -1.289062 2.816406 -1.234375 2.984375 -1.234375 C 3.117188 -1.234375 3.257812 -1.265625 3.40625 -1.328125 C 3.550781 -1.390625 3.703125 -1.484375 3.859375 -1.609375 Z M 3.859375 -2.6875 L 3.859375 -2.15625 C 3.703125 -2 3.539062 -1.882812 3.375 -1.8125 C 3.21875 -1.75 3.054688 -1.71875 2.890625 -1.71875 C 2.722656 -1.71875 2.507812 -1.765625 2.25 -1.859375 C 2.21875 -1.867188 2.195312 -1.878906 2.1875 -1.890625 C 2.164062 -1.890625 2.144531 -1.894531 2.125 -1.90625 C 1.832031 -2.019531 1.601562 -2.078125 1.4375 -2.078125 C 1.300781 -2.078125 1.160156 -2.046875 1.015625 -1.984375 C 0.878906 -1.921875 0.726562 -1.828125 0.5625 -1.703125 L 0.5625 -2.234375 C 0.726562 -2.378906 0.890625 -2.488281 1.046875 -2.5625 C 1.203125 -2.632812 1.367188 -2.671875 1.546875 -2.671875 C 1.703125 -2.671875 1.910156 -2.625 2.171875 -2.53125 C 2.203125 -2.507812 2.226562 -2.5 2.25 -2.5 L 2.28125 -2.484375 C 2.582031 -2.367188 2.816406 -2.3125 2.984375 -2.3125 C 3.117188 -2.3125 3.257812 -2.34375 3.40625 -2.40625 C 3.550781 -2.46875 3.703125 -2.5625 3.859375 -2.6875 Z "/>
</g>
</g>
</defs>
<g fill="rgb(100%, 41.960784%, 41.960784%)" fill-opacity="1">
<use xlink:href="#glyph-0-0" x="30" y="26.074219"/>
</g>
<g fill="rgb(100%, 41.960784%, 41.960784%)" fill-opacity="1">
<use xlink:href="#glyph-1-0" x="34" y="26.074219"/>
<use xlink:href="#glyph-1-0" x="35" y="26.074219"/>
<use xlink:href="#glyph-1-1" x="36" y="26.074219"/>
<use xlink:href="#glyph-1-2" x="39" y="26.074219"/>
<use xlink:href="#glyph-1-3" x="42" y="26.074219"/>
<use xlink:href="#glyph-1-4" x="45" y="26.074219"/>
<use xlink:href="#glyph-1-5" x="47" y="26.074219"/>
<use xlink:href="#glyph-1-0" x="51" y="26.074219"/>
<use xlink:href="#glyph-1-6" x="52" y="26.074219"/>
<use xlink:href="#glyph-1-7" x="54" y="26.074219"/>
<use xlink:href="#glyph-1-8" x="57" y="26.074219"/>
<use xlink:href="#glyph-1-8" x="60" y="26.074219"/>
<use xlink:href="#glyph-1-0" x="63" y="26.074219"/>
</g>
<g fill="rgb(100%, 41.960784%, 41.960784%)" fill-opacity="1">
<use xlink:href="#glyph-2-0" x="64" y="26.074219"/>
</g>
<g fill="rgb(100%, 41.960784%, 41.960784%)" fill-opacity="1">
<use xlink:href="#glyph-1-0" x="68" y="26.074219"/>
<use xlink:href="#glyph-1-9" x="69" y="26.074219"/>
<use xlink:href="#glyph-1-0" x="72" y="26.074219"/>
<use xlink:href="#glyph-1-0" x="73" y="26.074219"/>
<use xlink:href="#glyph-1-10" x="74" y="26.074219"/>
<use xlink:href="#glyph-1-2" x="76" y="26.074219"/>
<use xlink:href="#glyph-1-7" x="79" y="26.074219"/>
<use xlink:href="#glyph-1-5" x="82" y="26.074219"/>
<use xlink:href="#glyph-1-11" x="86" y="26.074219"/>
<use xlink:href="#glyph-1-0" x="89" y="26.074219"/>
<use xlink:href="#glyph-1-12" x="90" y="26.074219"/>
<use xlink:href="#glyph-1-13" x="93" y="26.074219"/>
<use xlink:href="#glyph-1-0" x="96" y="26.074219"/>
<use xlink:href="#glyph-1-14" x="97" y="26.074219"/>
<use xlink:href="#glyph-1-3" x="101" y="26.074219"/>
<use xlink:href="#glyph-1-4" x="104" y="26.074219"/>
<use xlink:href="#glyph-1-0" x="106" y="26.074219"/>
<use xlink:href="#glyph-1-10" x="107" y="26.074219"/>
<use xlink:href="#glyph-1-2" x="109" y="26.074219"/>
<use xlink:href="#glyph-1-15" x="112" y="26.074219"/>
<use xlink:href="#glyph-1-16" x="116" y="26.074219"/>
<use xlink:href="#glyph-1-5" x="120" y="26.074219"/>
<use xlink:href="#glyph-1-11" x="124" y="26.074219"/>
<use xlink:href="#glyph-1-0" x="127" y="26.074219"/>
<use xlink:href="#glyph-1-14" x="128" y="26.074219"/>
<use xlink:href="#glyph-1-17" x="132" y="26.074219"/>
<use xlink:href="#glyph-1-18" x="136" y="26.074219"/>
<use xlink:href="#glyph-1-19" x="139" y="26.074219"/>
</g>
</svg>
